<?xml version="1.0" standalone="no"?>
<!DOCTYPE svg PUBLIC "-//W3C//DTD SVG 20010904//EN"
 "http://www.w3.org/TR/2001/REC-SVG-20010904/DTD/svg10.dtd">
<svg version="1.0" xmlns="http://www.w3.org/2000/svg"
 width="100.000000pt" height="100.000000pt" viewBox="0 0 100.000000 100.000000"
 preserveAspectRatio="xMidYMid meet">

<g transform="translate(0.000000,100.000000) scale(0.100000,-0.100000)"
fill="#000000" stroke="none">
<path d="M7 833 c-4 -3 -7 -154 -7 -335 l0 -328 60 0 60 0 0 158 c0 158 0 159
26 183 l26 24 15 -22 c14 -20 24 -23 85 -23 l70 0 -45 63 -46 64 105 104 c57
57 104 107 104 111 0 5 -30 8 -66 8 l-67 0 -103 -107 -103 -108 -1 108 0 107
-53 0 c-30 0 -57 -3 -60 -7z"/>
<path d="M170 310 l0 -140 30 0 c30 0 30 1 30 55 l0 55 60 0 c57 0 60 1 60 25
0 24 -3 25 -60 25 l-60 0 0 35 0 35 60 0 c57 0 60 1 60 25 0 25 -1 25 -90 25
l-90 0 0 -140z"/>
<path d="M380 310 l0 -140 30 0 30 0 0 140 0 140 -30 0 -30 0 0 -140z"/>
<path d="M710 426 c0 -22 4 -26 31 -26 26 0 30 3 27 23 -2 16 -11 23 -30 25
-24 3 -28 0 -28 -22z"/>
<path d="M940 408 l0 -43 -43 3 c-39 3 -47 0 -71 -29 -25 -29 -28 -39 -23 -82
5 -58 32 -90 74 -89 15 1 50 1 76 1 l48 1 -3 137 -3 138 -27 3 c-27 3 -28 1
-28 -40z m-16 -94 c30 -30 13 -104 -24 -104 -37 0 -54 74 -24 104 8 9 19 16
24 16 5 0 16 -7 24 -16z"/>
<path d="M483 354 c-3 -8 -3 -47 -1 -85 6 -81 21 -102 70 -101 18 1 50 1 71 1
l37 1 0 100 0 101 -27 -3 c-27 -3 -28 -5 -31 -76 -2 -53 -7 -75 -18 -79 -30
-11 -44 17 -44 88 0 67 -1 69 -25 69 -14 0 -28 -7 -32 -16z"/>
<path d="M710 271 l0 -101 30 0 31 0 -3 98 -3 97 -27 3 -28 3 0 -100z"/>
</g>
</svg>
