<?xml version="1.0" encoding="UTF-8"?><svg xmlns="http://www.w3.org/2000/svg" xmlns:xlink="http://www.w3.org/1999/xlink" xml:space="preserve" width="64px" version="1.1" style="shape-rendering:geometricPrecision; text-rendering:geometricPrecision; image-rendering:optimizeQuality; fill-rule:evenodd; clip-rule:evenodd" viewBox="0 0 99.24 17"> <defs> <style type="text/css"> <![CDATA[ .str0 {stroke:#F4931A;stroke-width:0.27;stroke-miterlimit:22.9256} .fil1 {fill:#001659} .fil0 {fill:#F4931A} .fil2 {fill:#001659;fill-rule:nonzero} .fil4 {fill:#999999;fill-rule:nonzero} .fil3 {fill:#F4931A;fill-rule:nonzero} ]]> </style> </defs> <g id="Слой_x0020_1"> <metadata id="CorelCorpID_0Corel-Layer"></metadata> <path class="fil0 str0" d="M15.66 5.02c2.69,0 4.97,1.8 5.69,4.26l-2.43 0c-0.6,-1.19 -1.84,-2 -3.26,-2 -2.03,0 -3.67,1.64 -3.67,3.66 0,2.03 1.64,3.67 3.67,3.67 1.42,0 2.66,-0.82 3.26,-2.01l2.43 0c-0.72,2.47 -3,4.27 -5.69,4.27 -3.27,0 -5.93,-2.66 -5.93,-5.93 0,-3.27 2.66,-5.92 5.93,-5.92z"></path> <path class="fil1" d="M15.66 3.26l0 0.34c-4.06,0 -7.34,3.29 -7.34,7.34 0,2.44 1.18,4.59 3.01,5.93l-5.6 0 0 -13.61 -5.73 0 0 -3.26 15.66 0 0 3.26z"></path> </svg> 